<svg xmlns="http://www.w3.org/2000/svg" width="640" height="800" viewBox="0 0 1638 2048"><path fill="#030203" d="M0 0h1638v2048H0z"/><path fill="#FDFCFB" d="m1111 1171 4 1 2 4-7 23-4 24-1 2-4-2-7-9-6-5-3-1-49-1 1 1 1 47-1 6 28-1 8-5 6-8 2-1v36l2 13v16h-2l-8-12-7-6-10-3h-18l-1 65-1 2 2-1 38-1 14-2 10-6 10-14h3l2 11 3 37v12l-4-1-5-3-8-2H996v-3l9-11 2-6 1-23v-40l-1-15-11-13-2-4 12-10h2v-58l-1-11-5-10-4-3-5 2-4 5-5 13-7 26-11 42-13 51-8 30-7 29-2 13-1 20 1 8-1 2h-6l-6-4-5-6-7-18-14-49-8-30-13-52-6-25-7-26-6-22-5-8-3-3-7 8-2 11v69l1 2 6 2 1 4-6 3h-2v81l1 12 6 10 4 5-1 1-20 1h-28l-1-3 3-6 4-6 1-7 1-76-4-6-7-6v-5l6-5 4-2v-74l-3-7-7-6v-2l51-1h51l-1 4-7 6-1 9 7 30 10 43 11 49 1 6v8l2-1 2-13 8-37 15-62 5-20v-10l-4-6-4-3v-2l41-1h21l51 1h41l11-4zM505 1175l62 1 17 4 17 7 11 7 10 8 12 11 11 15 8 17 4 17 2 18v15l-4 17-8 16-7 11-12 13-11 10-11 7-16 8-18 6-14 3-38 2-20 3-20 6-14 6-15 9-13 10-11 11-9 13-6 15-2 11v12l3 13 6 12 9 10 2 4-10-3-14-9-7-7-7-11-4-12-2-13 1-15 4-12 8-15 11-14 10-10 15-11 13-8 22-10 18-6 33-8h3v-140l-1-16-3-10-4-6-8-7-3-2z"/><path fill="#050405" d="m929 549 11 2 20 6 31 11 24 10 15 8 5 4 27 15 19 12 15 11 12 9 14 12 15 14 16 15 17 17 10 13 14 18 8 10v1l-13 2-8 9-7 11-12 12-7 4-4 1h-14l-18-4-6-1-11-16-13-16-9-10-5-4-4-5-6-4-15-12-12-9-14-8-23-15-17-10-24-10-12-4 2-6 7-10 3-11 3-18 6-22-1-4-26-9-4-5-6-9-3-3z"/><path fill="#FDFCFB" d="M1313 1071h14v11l-3 30-5 28-9 38-10 30-18 42-15 30-14 24-16 24-12 16-10 13-8 10-7 9h-2l-2 4-10 10-7 8-20 20-11 9-13 11-15 10-4 3h-2l-2 54-4 8-5 4-4 2h-11l-6-4-4-6-1-8 3-6 4-3h3v11l3 3h6l2-3-1-8v-21l-2-16-6 8-10 10-13 8-27 14-22 10-25 10-31 10-30 8-39 6-29 3-17 1h-47l-39-3-36-5-31-7-40-12-34-14-42-21-23-16-8-3-1 5v13l3 9h8l6 4 4 6-1 8-5 6-6 3-9-1-6-4-6-7-2-7v-44l-5-6-18-13-10-8-11-9v-2l15-4 4 1 22 16 18 13 25 16 20 12 22 11 17 8 15 6 29 11 30 8 18 4 46 7 16 1h79l27-3 44-7 26-7 26-9 28-11 35-18 24-14 15-9 13-9 9-7 12-10 13-10 14-12 10-10 8-7 7-7 7-8 7-7 8-10 11-13 12-17 12-18 12-20 13-23 7-12 13-30 10-27 13-43 8-36 3-22 2-20z"/><path fill="#FDFCFB" d="M663 1176h63l19 5 16 8 9 7 8 10 7 14 3 13v8l-2 13-7 14-4 5h-2v2l-14 10-5 5 2 5 8 13 7 24 10 36 6 18 9 19 9 11 10 7 8 3h22l38-5 15-4 4-1 8 13-1 2-13 4-25 4-21 1 1-2v-7l-2 7-5 2-9 1h-23l-11-2-9-4-9-6-7-7-7-6-7-10-5-10-13-44-8-28-4-9-13-8-3-1v-22l8-6 17-10 10-11 4-11v-9l-2-9-5-9-14-8-16-6-13-5 1 3 1 39v32l-1 14v57l1 22 3 7 7 8v4h-51l-2-1 1-4 8-9 2-6 1-8v-73l-4-2-5-5 1-5 6-4h3l-1-76-4-8-7-6-2-1z"/><path fill="#040304" d="M1211 972h22l11 3 16 7 14 12 10 12 6 13 3 12 1 18-3 17-5 12-10 15-11 11-13 8-11 5-12 3h-21l-14-4-12-6-12-9-9-10-7-10-5-13-3-12v-19l4-16 4-9 7-11 4-5 8-7 10-7 13-6z"/><path fill="#FCFBFA" d="M412 972h13l14 3 12 5 9 6 12 11 8 10 8 17 3 13v21l-4 15-8 16-11 12-10 8-16 8-12 3h-20l-15-4-13-7-11-9-8-10-8-14-5-13-3-18 1-12 3-14 4-10 9-12 9-9 10-7 13-6z"/><path fill="#FDFCFB" d="M899 1011h39l-2 4-3 4v14l7 36 10 49 6 27 5 8 2 1 2-6 1-71v-53l-3-7-4-3v-3l32 1v9l4 13 17 41 5 12 1 3h2l-2-8-1-63-5-5v-2l32-1-2 4-4 5-1 4v119l3 9 2 5-30 1 2-6 3-5-1-12-5-13-13-27-11-28-1 12v41l1 24 6 9v3l-20 1h-46v-3l6-8-1-13-3-21-22 2-4 20v13l5 7v3h-28l-1-7 5-25 4-17 1-13-4-6-6-5 3-3 10-4 3-4 9-40 1-14-5-5zM824 508l10 1 10 5 7 8 3 7 1 6v29l-1 23v12l1 7v159l-4 1-14-5 1-45-6 3-7 7-4-2-5-5v24l1 18-9 3-10 2-1-1V535l4-12 6-7 10-6z"/><path fill="#FDFCFB" d="M670 711h25l16 4 10 5 3 2v2l4 2 9 9 7 12 2 8 2 30v22l-3 7-4 8-4 14-5 6h-2l-1 3h-1l-1-22v-44l-2-22-3-9-7-10-8-7-9-4-15-2 1 3 8 7 7 7 7 10 4 8 3 10 1 13v16l-1 31v35l3 22 4 16 8 16 9 12 3 3v2h2l5 5 11 9 17 9 17 6 15 3 9 1h21l22-5 16-8 10-6 15-11 9-10 10-15 5-13 5-19 1-7 1-28 3-42 5-2 4 2 3 10v18l-2 22v26l-4 20-5 13-7 14-9 12-11 12-11 10-16 10-20 9-13 4-5 1h-36l-15-3-21-7-16-8-10-7-11-9-10-10-7-10-8-13-7-19-4-18-1-6-2-96-2-12-6-14-8-13-10-11-8-6-3-6 1-5 2-1z"/><path fill="#FCFBFA" d="M756 506h11l-2 6-1 10-1 1-48 6-34 10-29 10-28 12-16 8-24 13-15 9-16 10-12 8-11 8-17 13-14 12-8 7-19 19-7 8-18 20-26 34-13 20-9 15-14 25-11 23-10 23-12 34-7 26-8 36-4 26-1 10-1 23-4 1-13-1-1-3 3-31 5-35 7-31 7-25 11-32 17-39 8-16 11-20 10-16 12-18 12-16 9-13 10-13 12-14 9-10 11-11 8-7 17-16 13-10 18-14 18-12 21-13 28-17 24-12 15-7 29-11 29-9 25-6 36-7zM880 506h13l1 1 35 6 25 6 29 9 23 8 26 12 17 8 18 11 21 14 16 9 9 7 24 18 13 11 10 9 8 7 6 5 7 8 16 16 9 11 11 13 10 13 13 18 8 12 10 16 9 16 19 38 14 34 9 28 9 38 4 21 4 29 3 27v5l-13 2h-5l-2-33-4-32-4-20-11-41-12-34-9-20-14-29-9-15-11-18-11-16-13-18-13-17-11-13-11-12-23-23-8-7-10-9-17-13-10-9-13-10-24-15-20-12-16-8-23-11-27-11-25-8-24-7-48-7-4-2v-7h-2l1 9h-2l-1-11-2-6z"/><path fill="#FDFCFB" d="m929 549 11 2 20 6 31 11 24 10 15 8 5 4 27 15 19 12 15 11 12 9 14 12 15 14 16 15 17 17 10 13 14 18 8 10v1l-13 2-8 9-7 11-12 12-7 4-4 1h-14l-18-4-6-1-11-16-13-16-9-10-5-4-4-5-6-4-15-12-12-9-14-8-23-15-17-10-24-10-12-4 2-6 7-10 3-11 3-18 6-22-1-4-26-9-4-5-6-9-3-3zm57 34-6 18-3 10-3 26 2 8 6 8 4 3 7 3 14 3 33 17 9 7 11 11 10 8h2v2l12 5 10 9 13 13 7 10 5 5 13 9 7 3 8-1 6-4 7-8 16-24-1-6-5-5-10-8-13-13-7-8-9-10-12-11-8-7-9-7-11-7-24-16-15-9-18-13v-5h-6l-2-1-9-1-11-7-18-7z"/><path fill="#FEFDFC" d="M0 0h1638v2048h-3V2H1z"/><path fill="#FDFCFB" d="m1046 1011 39 1 10 4 11 8 6 7 8 16 4 15 2 16-1 21-3 17-5 13-6 11-10 9-12 6-9 2-33 1-1-2 5-8 1-4v-123l-4-6z"/><path fill="#060506" d="M1166 1199h17l12 3 8 4 12 9 6 7 5 10 3 12v17l-4 15-5 10-8 9-13 8-12 4h-19l-13-4-12-8-7-7-7-11-5-13-1-5v-17l5-15 8-11 9-8 12-7z"/><path fill="#040304" d="M818 811h14l16 4 18 10 14 9 22 16 7 4-4 4-14 10-11 7-12 6-16 9-15 5-4 1h-22l-15-5-15-8-15-10-14-7-10-8 1-4 16-14 13-9 11-7 15-8 9-3z"/><path fill="#FDFCFB" d="M456 1199h14l13 4 10 5 9 8 3 5 1 4-1 45-1 16-6 8-6 5-12 6-14 3-16-2-14-6-9-7-7-7-6-10-4-12v-21l3-12 6-11 10-10 14-8 6-2z"/><path fill="#040304" d="M543 1202h11l15 4 17 8 12 9 10 9 9 13 6 15 2 10v20l-5 16-6 11-8 10-11 11-14 9-15 6-12 3-1-8v-67l-1-65-1-4-8-5-1-4z"/><path fill="#FDFCFB" d="M666 797h2v2l-20 12-13 10-7 7-7 10-6 12-8 24-1 16 3 17 6 14 6 9 5 4 4 5 8 7 13 10 10 5 6 2 20 3h7l8-2 3 4-2 5-3 3-17 1-7 1-20 1-16 2h-18l-10-3-12-9-12-11-7-7-5-6-8-19-2-10v-24l3-16 7-16 13-19 9-10 9-9 13-10 14-8 17-5zM890 558l11 1 10 6 10 14 4 8 2 11v38l-2 36v71l-1 33-1 11-1 3-2 43-1 11-2 4h-2l-8-33-7-14-12-13-13-11-5-4v-11l2-14 1-33 1-117 4-2h10l1 9-1 160 2 7 11 11 11 8-1-5h-3v-3h3v-2h-2l-1-3v-8l3-6h-2l-1-7-1-18V593l-5-13-7-6h-9l-11 4-4-1 3-9 4-5 7-4zM976 799h11l14 3 11 4 14 7 16 12 9 9 10 13 7 12 7 17 3 14v18l-5 19-5 12-8 11-8 9-11 9-18 10-10 3-4 1h-17l-16-4-20-6-5-3v-3l26-3 13-5 12-7 11-9 9-11 6-10 5-12 2-10v-26l-4-16-9-19-7-10-7-7-13-9-15-7-6-3v-2z"/><path fill="#FAF9F8" d="M1211 972h22l11 3 16 7 14 12 10 12 6 13 3 12 1 18-3 17-5 12-10 15-11 11-13 8-11 5-12 3h-21l-14-4-12-6-12-9-9-10-7-10-5-13-3-12v-19l4-16 4-9 7-11 4-5 8-7 10-7 13-6zm28 16-23 7-14 9-11 11-6 10-3 9-1 6-4 1h4v14l-1 2 2 1 2 6v4l-4 3 1 2 5-3 1 2 1-1 1 3h3v2l-2 1v7l3 2-2 4 7-3v3l-4 2 1 3 5-5 4-3-4 7 1 2 3-3-1 6h2v-2l3-1v-2h2l-3 6 1 2h3l-3 4 6-2 4 2v2l4 1 2-1 6 2v-3h7l14-6 11-8 8-9 7-11 5-13 2-9v-17l-3-14-4-10-7-9-9-7-9-4-8-2z"/><path fill="#FDFCFB" d="m571 611 6 2 21 10 16 8 21 10 24 8 20 3v4l-4 3-14 5-19 10-8 1 4-6 4-4v-3l-14-6-16-6-24-13 4 21 2 17 3 1 2 10 7 5 1 6-6 7-8 7-7 9-11 9-5 6-7 5-7 8-13-1-20-7-18-6-20-5-12-2-23-2 2-4 7-7 8-4h14l12 3 16 7 20 7 2 1-2-6-11-19-5-7-6-17v-11l4-8 9-8 15-10 1 4-5 31 1 9 7 16 10 18 12 2h16l1-1v-20l-2-35-4-28-4-18-1-6z"/><path fill="#FEFDFC" d="m1265 852 2 1-1 22 11 21 4 16 2 21 2 12 5 12 2 9v6l-9-5-16-9-14-6-16-4-18-4-17-7-9-8-7-8-9-4v-3l8-7 10-14 12-9 12-7 18-8 18-11z"/><path fill="#FDFCFB" d="M794 1011h32l-2 4-3 5v53l10-1h18l-1-52-8-8 18-1h19l-3 5-4 7v120l6 12v2h-35l2-5 3-3 2-12 1-38 1-9h-29v34l1 20 6 11v2h-34l6-11 1-7-1-49-6-9-4-3 2-4 9-5v-45l-3-8zM380 855l5 2 5 4 15 9 35 14 9 6 5 4 6 10 3 6 2 3-10 8-8 11-8 7-13 5-14 3-20 3-16 8-14 9-5 4h-3l1-11 7-36 5-24 5-12 8-14-1-3v-15z"/><path fill="#FEFDFC" d="M449 749h11l13 3 24 9 13 5 19 6 6 1-2 4-11 13-8 14-16 32-4 10-1 5h-2l-4-10-6-8-5-6-11-9-13-9-17-10-1-1h-9l-12 4-5 2h-5l1-5 20-20 12-20 6-7zM643 1009l2 1-2 30-2 4-3-1-5-8-5-2h-18l-6-1-1 40 19-3 5-5 5-8 2 1-1 12-1 38h-2l-5-10-6-5-4-1h-11v26l1 21 20-1 9-2 7-8 4-7 2 1-1 27-1 11-7-1h-57l1-5 2-5v-24l-1-32-4-6-7-7v-2l11-6v-50l-4-6-2-4 25 1h34z"/><path fill="#FCFBFA" d="M327 1070h3l2 28 4 25 13 52 9 27 9 21 14 30 14 28 8 14 18 27 11 15 12 16 4 7-9 7h-4l-10-12-10-13-24-34-14-24-12-22-12-26-10-25-9-24-12-45-4-22-3-22-1-10v-17z"/><path fill="#050405" d="M408 1014h12l16 6 12 6 10 10 4 6v9l-8 16-8 8-16 8-11 2h-19l-13-4-13-8-7-6-9-12v-6l10-7 9-10 9-8 12-7z"/><path fill="#FEFDFC" d="m951 671 6 1 19 8 15 8 18 11 16 12 10 9 9 7 10 9 11 11 7 8 11 13 13 18 10 13 10 18 8 14 9 19 12 29 9 31 6 27 4 23-1 6-11 12h-2l-3-29-3-18-10-37-9-26-11-24-8-16-13-21-12-17-13-16-11-13-9-10-7-8-11-9-8-8-11-9-14-10-20-12-12-6-14-5-1-1v-9zM718 547l2 1-10 14-2 3v22l7 33 4 9 1 5-8 3-16 5-7-1-15-3-13-7-7-6-7-11-1-4v-16l3-7 4-6 13-13 10-6 19-8zM714 1008h2v12l-1 21-1 5-4-1-5-10-3-1-22-1-1 36 19-1 7-10 2 1-1 42-4-2-5-9-4-2-13-1-1 5v40l1 12 5 10 1 3-33 1 1-6 4-8 1-10v-45l-3-5-7-6 2-4 8-5 1-46-3-6-5-5 1-1 17 1h37zM637 699l1 4-1 11-1 5-14 11-10 10-8 7-11 11-6 5-7 8-10 11-12 17-8 12-12 19-12 23-9 23-10 30-7 30-3 19-2 17-3 7h-2l-1-4-4-2-5-5-1-2 5-30 6-24 7-24 15-38 8-16 21-35 8-11 9-12 11-13 12-13 11-12 8-7 15-14 14-11z"/><path fill="#FDFCFB" d="M785 1010h3v18l-1 14-2 5-4-2-5-9-7-3-5-1 1 17 1 88 2 10 5 8v2l-35 1-1-2 5-7 2-9 1-32v-16l-2-60-8 2-7 6-2 3h-3l1-30 1-1h50zM510 1011h34l-2 4-3 4-1 8-1 101-1 9 23-2 4-2 8-17h2v43l-4 1-8-2h-53l-1-2 8-13 1-19v-96l-1-10-6-5z"/><path fill="#FEFDFC" d="M1166 1199h17l12 3 8 4 12 9 6 7 5 10 3 12v17l-4 15-5 10-8 9-13 8-12 4h-19l-13-4-12-8-7-7-7-11-5-13-1-5v-17l5-15 8-11 9-8 12-7zm3 13-11 4-9 7-8 9-3 5-2 11v7l3 11 6 11 6 7 11 7 6 2 12 1 10-2 10-5 9-8 5-10 2-7v-18l-5-12-4-6-10-8-8-4-7-2zM818 811h14l16 4 18 10 14 9 22 16 7 4-4 4-14 10-11 7-12 6-16 9-15 5-4 1h-22l-15-5-15-8-15-10-14-7-10-8 1-4 16-14 13-9 11-7 15-8 9-3zm2 11-15 3-17 9-16 11-11 10 5 4 17 12 21 11 10 3h18l12-5 16-8 11-7 14-10-2-4-15-11-16-10-13-6-14-2z"/><path fill="#FCFBFA" d="m954 707 6 2 23 13 6 6v5l-4 2 3 4 4 1v-2h3l1 2 6-2 10 9 6 5v2l4 2 14 14v2l4 2 11 12 9 11 14 18 12 19 8 14 10 21 9 27 7 28 4 24 3 24-3 4-3 1h-7l-2-3-1-24-5-29-4-17-7-22-6-16-11-22-9-14-9-12-13-17-12-14-7-7-7-8-24-22-16-14-10-6-16-9-3-5v-6z"/><path fill="#040304" d="m822 525 9 1 5 5 1 2-1 102 1 33v27l-7 9-6 4-7-8-1-2-1-83v-27l-1-35v-21l4-5z"/><path fill="#070607" d="M454 1212h14l12 5 10 6 9 10 4 13v10l-3 13-5 9-6 7-12 6-10 3h-9l-10-3-4-2v-2l6-2 2-4 8-11 3-4 6 1 9 10 4 1-2-8-6-8-11-10 1-3 9 8 13-1 9-3 2-4-18-4-8-3 2-5 6-9 2-6-1-1h-6l-6 11-2 3-4-1-5-5-4-8-6 1-1 3 4 8 10 11 1 6-6 5-5-8-9-2h-11l-3 5v5l26 4-2 6-9 11-4 8-4-2-7-8-4-11v-21l4-11 9-10 9-6z"/><path fill="#FDFCFB" d="m728 857 5 2 6 16 7 20 7 13 10 11 14 10 23 10 10 2h26l19-5 17-8 12-9 8-9 8-13 6-14 8-19 4-7h2l1 13-3 17-6 15-6 10-7 9-11 11-15 10-16 7-14 4-6 1h-30l-15-3-13-5-11-6-11-9-10-9-8-10-6-12-4-13-2-14v-15z"/><path fill="#FEFDFC" d="m772 1453 12 3 3 2v2h43l15 1 4 4 5-1 6-5 15-5-1 5-9 13-10 18-6 7-11 7-11 4-10 1-12-4-10-7-6-7-12-23-6-11z"/><path fill="#EFEEED" d="M644 739h2l5 6 3 3-10 8-10 9-8 7-14 15-7 8-9 10-9 11-10 13-10 16-8 16-7 15-9 27-6 26-2 15-1 26-3 7-4 1v-2l-4 1-2-2-1-10 3-32 6-26 9-30 8-19 11-21 8-12 11-14 10-13 12-14 15-15 4-5 8-7 17-16z"/><path fill="#FEFDFC" d="m354 1115 8 6 14 9 17 8 11 3h29l15-4 14-6h3v9l-7 6-25 12-9 4-22 12-18 10-7 3h-4l-4-13-5-11-5-21-5-20zM1287 1116h1l-1 11-5 22-4 11-6 13-3 15h-4l-30-15-22-12-4-4-21-10-8-6-2-2 1-6 4-1 10 5 13 4 6 1h14l21-4 13-5 13-7 11-8z"/><path fill="#FDFCFB" d="M757 559h14l6 3 5 6 2 6v10l-4-1-8-7-3-2h-11l-6 5-3 8-1 6-1 129h-3l-10-8-4-6V598l4-17 6-10 5-6 9-5z"/><path fill="#FDFCFB" d="M766 597h13l1 10 1 166-16 12h-1V665l-1-65z"/><path fill="#FEFDFC" d="M642 1421h11l12 3 12 6 6 7 3 7v9l-3 10-7 8-8 4-13 4-10-2-10-5-6-5-4-8-2-7v-17l4-6 8-6zM996 1420l9 1 5 3 6 9 2 9-1 14-3 10-5 5-12 6-11 2-15-5-6-4-6-8-3-6-1-5v-7l4-8 7-6 13-7zM915 1445h9l7 4 6 5 7 10 2 5 1 7v12l6 1v2l-23 9-13 3h-7l-9-3-9-6-6-8-1-3v-13l6-12 8-8 11-4z"/><path fill="#050405" d="m1073 1029 5 1 11 6 7 7 6 10 4 16v25l-3 17-5 10-7 8-10 6-6 3h-2z"/><path fill="#FEFDFC" d="M719 1446h10l9 2 10 6 8 11 2 11-1 9-5 8-9 6-13 4-13-2-17-8-2-4-3-1 3-21 3-8 7-8 7-4zM1209 750l5 5 7 14 6 14 5 5 8 6 1 3-4 3-14 1-16 8-25 13-11 7-7 8-9 16-2-1-2-10-15-35-8-16v-3l6-1 6 4 11 14 6 8 2 4 24-13 17-9 6-3h2l-1-6v-30zM822 779l14 1 19 5 11 6 9 7 5 4 8 10 8 15 2 5v3l-4-2v-2l-5 1-22-22-14-9-13-5-5-1h-20l-12 3-16 8-10 9-7 7-8 10-3 3-6 2-1-1 1-9 7-13 8-10 8-7 8-6 12-6 15-4zM754 873l9 3 7 9 6 8 9 9 14 7 10 3 7 1h15l14-3 9-4 11-7 8-8 12-16 5 1 2 1-2 10-6 12-13 13-14 9-16 5-12 2h-14l-21-5-13-7-13-12-7-9-5-9-2-8z"/><path fill="#050405" d="M1243 888h12l7 8 2 6v19l-3 7-6 5-10 1-15-3-16-8-9-7-1-6 6-9 10-7 15-5zM400 986h22l13 3 11 6 10 9 7 10 5 11v12l-3-3-7-8-5-4-5-6-10-7-10-4-4-1h-15l-11 3-10 5-16 12-11 9-5 2-2-3 1-7 9-15 9-10 8-6 12-6z"/><path fill="#FEFDFC" d="M594 1406h19l1 2v7l-6 5-8 5-2 2 1 6 7 13v10l-3 1-21-12-20-12-19-13-12-9v-2l28-2z"/><path fill="#050405" d="M395 889h17l8 2 14 7 9 7 1 2-5 8-10 9-14 7-6 2-7 1h-10l-5-3-3-3-3-8 1-13 4-10 5-6z"/><path fill="#FEFDFC" d="m1039 1407 44 1 16 1 4 2-1 5-15 11-26 17-17 10-12 6-1-4 1-7 8-16 3-3h10l10-3 8-7h-24l-7 1v2l-6-1-14-7v-3l4-3zM493 1137l5 5 6 9v3l-13 6-8 3-14 8-23 12-25 13-17 11-16 9-5 2-7-11 9-6 22-12 17-10 15-8 22-11 10-3 18-10v-3l4-2-1-4zM1219 1026l11 2 7 4 6 7 2 6v8l-5 9-4 5-7 4-4 1h-9l-11-4-5-4-3-6v-15l4-6 5-5 6-4zM1171 1229h13l6 3 7 8 3 10v7l-3 8-4 5-9 5-4 1h-7l-8-3-7-7-4-10v-9l5-10 7-6zM1146 1144h2l3 3 16 6 10 5v3l6 2 15 8 12 6 18 10 19 10 13 6 5 2-2 4-6 9-11-6-27-14-14-8-16-8-17-9-20-11-1-4-4-4z"/><path fill="#201E1F" d="m588 637 5 2 23 12 20 7 7 4-1 4-7 8 4 2-5 3-6 4-9 5-3 2h-8l-3 1-7-5-2-10-2-1-3-17z"/><path fill="#080708" d="M454 1212h14l12 5-1 3-5 1-6 11-2 3-4-1-5-5-4-8-6 1-1 3 4 8 10 11 1 6-6 5-5-8-9-2h-11l-3 5v5l26 4-2 6-9 11-4 8-4-2-7-8-4-11v-21l4-11 9-10 9-6z"/><path fill="#060405" d="m454 769 11 1 18 6 12 5 13 4-1 4-12 19-5 7h-3l-5-5-10-7-24-14-8-7 2-6 9-6z"/><path fill="#FEFDFC" d="m1254 819 3 1 5 12-16 8-31 16-16 9-23 12-12 5-6-10 1-3 23-12 24-13 33-17zM390 821l5 1 17 9 17 8 22 12 22 11 13 8-1 5-4 6-9-2-24-13-22-11-17-9-17-8-7-5 1-5z"/><path fill="#040304" d="M689 573h2l3 16 9 21 4 8-1 4-13 4h-7l-11-4-8-6-4-6v-9l7-14 7-8z"/><path fill="#FEFDFC" d="m1119 1300 6 2 12 10 16 9 21 10 8 1 5-1-2 5-8 11-31 31-4 3-2-1v-25l9-3 6-4 3-3 1-4-16-8-3-1-1-12-2-4-8-4-14-4 1-6z"/><path fill="#FDFCFB" d="M661 1400h10l17 5 44 13 11 3 9 2 5 2 6 12v3l-29-7-28-7-24-9-19-9-8-4v-2z"/><path fill="#FEFDFC" d="m414 1025 7 1 9 6 4 6 1 3v10l-3 9-6 5-6 2h-8l-7-3-5-5-3-5-1-9 4-9 7-8zM1028 628l16 8 17 9 13 10 15 14 6 7-1 2-4-2-8 3h-6l-14-10-10-7-11-8-6-4-8-3-2-2 1-13zM1095 678l8 6 9 7 10 9 11 9 9 9 5 4h8v12l-5 13-3 1-5-4-7-9-12-13-15-16-10-12-2-12zM820 834l9 1 7 4 5 7 1 3v11l-6 8-7 4h-11l-7-4-4-5-2-5 1-9 5-9 6-5zM501 1311h1v14l-5 5-17 9-3 2 1 3 10 2-3 3-9 3h-6l-10-9-8-10 1-2 13-2 16-7 12-6z"/><path fill="#050405" d="m818 1468 11 2 10 4 2 2-1 6-5 6-9 5-8 1-9-3-7-8-5-7v-2l14-5zM984 1436h10l8 4 2 4-1 9-4 6-7 5h-13l-6-5-3-6v-7l6-7zM649 1435h8l8 3 5 5 1 3v7l-3 5-4 4-6 2h-7l-7-4-5-7-1-3v-8l5-5z"/><path fill="#060506" d="M723 1460h7l8 4 6 7v6l-6 7-6 3-7 1-9-3-5-6-1-2v-7l3-5 5-4zM912 1460h8l8 4 4 5v9l-7 8-6 2-10-1-6-4-4-6v-8l8-7z"/><path fill="#FEFDFC" d="m309 1015 9 1 7 6 2 4v7l-4 8-5 4-2 1h-8l-6-4-4-7v-9l4-6 5-4zM1325 1015l9 1 5 5 3 5-1 9-4 6-6 4h-9l-7-6-2-5 1-9 7-8zM992 852l3 3 6 9 7 5 4 2-3 3-7 4h-2l-2 4-5 5-4-2-7-6-8-4-5-2 1-3 10-4 6-5z"/><path fill="#1E1C1D" d="m1050 704 9 6 10 8 6 5 5 5 13 14 13 17 7 10v2l2 1-2 1-1 2-1-4-4-2v-2l-2-1-1 2-1-3h-2v-2l-4-2-5-4v-3h-2l-5-6v-2h-2l-4-7v-3h2l-1-5-1 3-9-3v-2l-3-1v-2l-4-2-8-6v-2h-2l-1-3h2v2h2v2l5 2 5 4v-3l-6-3v-2h-2v-2h-2v-2l-4-1-2-2z"/><path fill="#FEFDFC" d="M652 854h2l5 8 10 7 3 3-11 7-6 5-2 3-3-1-5-5-9-6-5-2 1-3 12-6z"/><path fill="#201E1F" d="m1234 1218 12 1 10 4 1 7-1 3-8 1-1 2h2l-2 5-6 9-3 6h-2l-4-20-1-13z"/><path fill="#222021" d="m1192 1074 1 2 4 2 7 5h4l2 2 2-3 1 2 8 2-1 4h-2l5 3v2l2 1v3h-5l9 4 3 3 1-2v3h-3v3l-7-2-2 1-3-1v-2l-5-2-5 2 3-4h-4l2-6 1-2h-2l-1 3h-2v2h-2l1-6-4 3 2-6 2-3-8 6-2 2 1-4 3-1-1-3-6 3 2-4-3-3v-7h2z"/><path fill="#060506" d="m423 1252 4 3 26 4-2 6-9 11-4 8-4-2-7-8-4-11z"/><path fill="#201E1F" d="m1083 1044 4 1 6 5 2 5 2 7 1 5-1 9v6l-2 2-3-8 1-2-6 2-1 7-3 1-3-7-1-4v-14l2-3 1-6v-5z"/><path fill="#060506" d="M1267 1143h2l-1 9-4 8-7 6-3 1-14-5-10-7 1-3 16-2 13-4z"/><path fill="#FDFCFB" d="M707 666h3v7l-5 6-10 5-11 3h-11l-1-1-9-1 2-2 17-8z"/><path fill="#060506" d="m588 637 5 2 17 9-1 5-2 2-3 7-3 9h-2l-1 4h-4l-3-17z"/><path fill="#211F20" d="m385 744 1 2-10 17-8 14-9 19-7 15-10 24-12 36-8 30-5 26-5 34-3 31-2 4v-17l5-38 7-39 9-33 12-36 9-21 8-18 8-15 8-16 9-15z"/><path fill="#060506" d="m374 1144 9 3 17 4 15 2-4 4-12 5-10 3-10-2-4-10z"/><path fill="#FEFDFC" d="m973 1394 3 1 6 10-19 10-10 3h-6l1-5 1-7 16-8z"/><path fill="#1A191A" d="M1218 802h2v2h-2v2h-2v2l-5 3h-3l-1 2-7 4 1 3-17 8-8 4-6 4-2 5h-2l-1 5-2 4-6 4 8-3 4-2-2 5-2 3h-2v2l-2-1 1-2h-6l-3-2 1-2 3-4 6-11 8-9 13-8 31-16z"/><path fill="#211F20" d="m937 775 6 4 3 6 3 12 1 10-1 3h-3v5h-1l-3-10-4-1-3 1-1 11h-1l-1-37 2-3z"/><path fill="#090809" d="M1243 888h12l7 8 2 6v13h-1l-1-6h-2l-1 2-3-10-2-4-5-2-12 1-14 5-9 4-2-6 10-6 13-4z"/><path fill="#080708" d="m916 1054 2 1 8 36v5h-17l2-14z"/><path fill="#060506" d="M1174 1241h8l5 5 1 2v8l-3 5-6 3-7-1-5-6v-9l5-6z"/><path fill="#FEFDFC" d="m658 905 9 1 10 5v3l-9 6-3 1h-8l-10-5-1-4 10-6z"/><path fill="#373535" d="M1083 955h6v2h2l2 6-1 10-1 2h-2l-1 3-4-1h-5l-2-1h-4l1-9 8-11z"/><path fill="#FEFDFC" d="m981 907 7 1 10 5v2l-15 10-4-1-11-8-2-2 12-6z"/><path fill="#211F20" d="m898 728 3 1 3 15 2-1 2-4 1 25h2l-1 4-1 2v11h2v2h-3l1 3h3v5l-5-2v-18l-7 3-3-7v-12l2-3 5 2 1 2-4 2-1 9h2l2 2h2v-16l-3-1 2-1v-2h-2v-2h-2v-2l-3-1v-2h3v-2l-3-1-1-6z"/><path fill="#201E1F" d="M727 823h1l1 21 7-8 1 3-1 6v3l4 2v6l-9 3-1-2-2 1-1 13-2-3h-2l-1-9 4-6-3-5v-6l3 1z"/><path fill="#080708" d="m566 1417 22 1 11 2v3l-8 6-4 1-10-2-11-9z"/><path fill="#201E1F" d="m995 1111 4 1 6 9 4 9 1 8h1v6l-5 2 1-2v-7l-6-4h-3l-3-8-1-13z"/><path fill="#1F1D1E" d="M1032 599h2v5l14 10 4 4h-4l1 3-3-1v-2l-4-2v-4h-2v6h-2l-1 3-4-3-5 3-2 3-1-5 2-2v-8l3-5h2l-3-4z"/><path fill="#211F20" d="m766 573 5 1 7 7 6 3v-8h1v9l-3 5h-2l-1 3-5 1-6-7-3-6-2-2v-4z"/><path fill="#1A1819" d="m523 1215 2 4v88h-1l-1-43-2 2-1-4v-13l2-2-2-6-1-2 1-16 2-7z"/><path fill="#201E1F" d="M942 966h9l1 3 10 4 24 7 6 1-4 4-2-1-1-3h-8l-9-2v-2l-9-1-3-1-7 1h-9l-3-3v-5z"/><path fill="#2A2829" d="m983 722 5 2v2l6 1 4 5 5 4 3 1 1 4h2v2l4 2 21 21-1 2-13-13-2-1v-2l-4-2-9-9-4-2-6 2v-3h-3v2l-5-1-2-4 3-2v-5z"/><path fill="#1D1C1D" d="M656 978h19v1l-8 2h-2l-4 6-5 1-9-1-7 1-3-5-12-1v-1l27-2z"/><path fill="#1C1A1B" d="m1050 704 9 6 10 8 6 5 4 5v6l-9-3v-2l-3-1v-2l-4-2-8-6v-2h-2l-1-3h2v2h2v2l5 2 5 4v-3l-6-3v-2h-2v-2h-2v-2l-4-1-2-2z"/><path fill="#211F20" d="M475 633h2l-1 3h-2v2l-8 7-20 20-7 8-10 12-11 15-13 18-11 16-7 10-1-2 14-21 8-11 13-18 11-14 9-11h2l2-4zM555 956l4 3 3 6v2h2l1 7-2 7-7-2-2-1v-5h-2l-1-8 3-8z"/><path fill="#201E1F" d="m438 735 8 1 3 1 4 4h2v2l4 1 11 6 2 2-12-2h-15l-3-2h-2v-6l1-5zM534 628l4 1-1 15h-3l-5 2-7-2-3-1v-3h2v-3h2v-2l8-6z"/><path fill="#211F20" d="m312 1115 2 2 4 21 9 35 5 16 2 6v5l2 1 1 7h2l3 9 2 5v5l-3-4-4-10-9-27-4-14-4-15-4-16-4-19z"/><path fill="#201E1F" d="m1116 799 8 8h5l3 5 2 7 4 8 6 13-6 1-8-19-7-11v-2h-2v-2h-2l-3-6z"/><path fill="#211F20" d="m645 1390 8 1 8 5 3 1v2h7v1l-10 1-1 1h-5v2l-6-1-6-4-3-4 2-4 3 1z"/><path fill="#201E1F" d="m934 698 2 2-2 8 4 7v8l-5 1 1 6 3-2v7l-3 11-2 5-2-4v-23l2-23z"/><path fill="#211F20" d="M919 833h1l1 7 2 3-2 3h2l3 9v23l1 2-1 5h-2l-1-4v-15h-2l-1-9h-2l-1 2v-8h-2v-3l2-1 1-3z"/><path fill="#1D1B1C" d="m1248 889 5 2v3l-4 1-12 1-14 5-9 4-2-6 6-3 10-2 3-1 8-1 1-2z"/><path fill="#211F20" d="m684 941 3 1 4-1 1 1h3l2 4-4 2-1 2h-3v2l-10 1v-5h-5v3h-2v-4l-4-2v-2l6 2z"/><path fill="#FEFDFC" d="m1153 1117 4 2 8 6-3 6-3 4-10-2 1-9z"/><path fill="#4E4C4D" d="M1021 625h4v2h3l-2 15-2 4-5-3h-3l-1-5h2l2-10z"/><path fill="#211F20" d="M415 901h7l3 2 6 2 1 4-3 4h-4v2l-5 2-1-4-1-7h-2zM555 611h3l2 9 1 8-4 1-5-5-5-3h-2l2-5z"/><path fill="#201E1F" d="m1181 1322 9 2 1 3-4 5-6 1-10-2-2-2 4-2v-2l3-2z"/><path fill="#211F20" d="m1090 675 5 3 2 4 1 12h-1l-1-10-9 2-12-6-2 1v-3l-2-1 2-1 3 2h6zM538 683l5 2 4 7 1 14-1 2-3-1-6-14-1-7z"/><path fill="#070607" d="M816 849h2v2l2-1 11 1 1 4-5 5h-8l-4-3-1-6z"/><path fill="#FEFDFC" d="M400 1227h2v13l-2 8-3-1-5-10 1-6z"/><path fill="#211F20" d="M1010 603h17l2 2-2 2-6 2v4h-2l-1 4-6 2-1-4h2l-1-8z"/><path fill="#FEFDFC" d="m489 1117 2 2v11l1 4-4 1v-3l-4 2-5-7 1-3z"/><path fill="#3A3839" d="m365 1047 7 2v2l2 1v2l4 1 14 10 2 3-6-1-12-7-7-5-4-5z"/><path fill="#FEFDFC" d="m1238 1231 4 2 7 3-2 5-6 8h-2l-2-8v-8z"/><path fill="#201E1F" d="m1148 1132 9 2 2 1 1 5-4 4h-3v2l-4 1-2-4z"/><path fill="#211F20" d="M942 1410h5l2 5-1 2 3 2-16 2v-8z"/><path fill="#FEFDFC" d="m444 1320 12 1 1 4-5 6-5-2-5-4-1-4z"/><path fill="#1F1D1E" d="M704 1170h16l4 2 2-1 18 5v3h-9l-8-4-12-2-11-1z"/><path fill="#1E1C1D" d="M372 1182h1l1 5 4-2 3 1 2 3-1 2 1 3-2 3h-3l-1 2-3-1 3-1-4-5-2-4h-3l-1 4-2-3 1-3 5-1z"/><path fill="#211F20" d="m1256 912 1 3-6 9-1 1h-9l2-2-12-2-6-2v-3l7 2 10 2 12-4z"/><path fill="#1D1B1C" d="m698 959 4 1-1 2 5 5-1 3-3-5-8 2-14-1 1-6 3 1 4 4 1-4z"/><path fill="#201E1F" d="m585 1230 7 2 2 2v3l2 1-3 1 1 2 2 1-4 1-14-6 2-2h4z"/><path fill="#1E1C1D" d="m898 728 3 1 3 15 2-1 2-4v13l-4 1-1-2h2v-2h-2v-2h-2v-2l-3-1v-2h3v-2l-3-1-1-6z"/><path fill="#FEFDFC" d="M664 834h8l2 5-5 5-7-2-4-4z"/><path fill="#060506" d="m622 655 9 1 9 4-1 7h-2l-1 3-2-4-1-4-9-2-3-4z"/><path fill="#201E1F" d="m1140 741 7 6h3v2l-3 2 1 2-7 1-4-2-3-7 1-2 4-1z"/><path fill="#070607" d="M413 1042h6l4 5-1 3-4 2h-5l-4-4v-4z"/><path fill="#201E1F" d="m692 975 8 1-6 6 4 4-3 3-3-1-1-2-5-1 4-5-2-1-12-1v-1z"/><path fill="#1D1B1C" d="m523 1250 2 2v55h-1l-1-43-2 2-1-4v-9zM1123 778l6 2-3 1 1 3 4-1-1-3 12 1-2 5h-2v3l-10-1-1 3v-5l-4-5z"/><path fill="#211F20" d="m869 1315 2 2 2 8v6l-5-2h-2l-1 3-7 1-1-3 4-1 1-4 6-1 2-1-1-5h-2v-2zM932 1242l1 2-3 10-1 9-2-4 1-6h-2v2l-2 1-2 4-1 7h-1v-8l3-7 2-3 1-5z"/><path fill="#F6F5F4" d="M557 960h2l4 7 1 6-3 3-5-3-2-7v-3l4 1z"/><path fill="#1F1D1E" d="m1165 837 3 1-1 3h-1l-1 5-2 4-6 4 8-3 4-2-2 5-2 3h-2v2l-2-1 1-2h-6l-3-2 1-2 4-2 2-4h2l1-4z"/><path fill="#211F20" d="M980 1300h5l-2 4-5 4-3 3h-3l-2 4-4 2 2-7 2-3h2l1-3 6-2z"/><path fill="#232122" d="M491 1123h1l2 8v3l-1 8-5 2-3-6-3-2 2-3 5-2v3h2l1-3-2-1z"/><path fill="#211F20" d="m385 833 2 2v8l-3 4-5-1-3-7 3-3 5-1z"/><path fill="#FEFDFC" d="m971 833 6 2 3 2-1 4-7 2-5-3-1-3 2-3z"/><path fill="#211F20" d="M860 1264h1l3 16 1 1 1 10 2 9 1 13h-2l-3-6 2-5-2-5-3-20-2-10zM738 1228h2l1 18-3 5-8 3h-8l-5-1 1-3 4 1h7l5-2 4-6zM974 1363l4 1v2h2l1 8-6 5h-2l-1-4 2-4-2-7zM782 532l3 1 1 4-24 3-5 1-3-1v-2h7l11-4 9-1z"/><path fill="#1D1B1C" d="m397 1210 2 1-2 5-9 3-2-1v2l-4 1-2-1v2h-2l2 4-3-1 1-5 3-1-3-4h2l1-2 3 4z"/><path fill="#1E1C1D" d="m899 752 5 2 1 2-4 2-1 9h2l1 6-3 1-3-7v-12z"/><path fill="#211F20" d="m343 1228 4 2 3 6 4 10 3 5 4 10v2l2 1 1 6-3-4-8-16-9-20z"/><path fill="#1E1C1D" d="m771 1168 3 1-15 9h-13l-1-2 11-2 10-5z"/><path fill="#211F20" d="M1327 934h1l7 49v5l-2-1-3-20-2-18zM696 914l2 1v7l-6 7-1 3h-7l1-2h2v-3l3-3 3-1 1-6z"/><path fill="#0B090A" d="m548 1496 5 1 1 8-2 2-6-1-1-5z"/><path fill="#211F20" d="m1214 738 6 2 8 6v2h2l-1 3-7-3h-4v-6l-4 1-1-4z"/><path fill="#201E1F" d="m391 913 3 3v3h2l1 5-4 1-4-1h-2v-8zM1218 802h2v2h-2v2h-2v2l-5 3h-3l-1 2-11 6-4-1h3v-2l10-5v-2z"/><path fill="#211F20" d="m713 978 6 4 1 3-6-2-4 2h-4l1 4-5 5-3 1-1-2 4-2 1-6h-3l-1-3 9 1 4-1zM388 1435l1 3-5 12-1 11v17l-2-2-1-6v-12l4-15zM668 675v3l-2 4 2 1-3 1 7 1 1 1 10 1v1h-27l2-4 5-2 4-6z"/><path fill="#1A1819" d="M689 941h2l1 1h3l2 4-4 2-1 2h-3v2l-4-2 2-3v-4z"/><path fill="#201E1F" d="m1151 715 7 3-2 15h-1l-1-10h-7v-3l1-4z"/><path fill="#211F20" d="m606 1285 2 2-3 6h-2l-1 5-4 2-3 3h-2l1-8h5v-2l3-2 3-5z"/><path fill="#201E1F" d="M801 495h10l2 2h-2v3l-27 1h-2v-2l20-1z"/><path fill="#211F20" d="M531 1456h1v35h-1l-1-15-2-1 1-4h1v-6l-1-2-5-1v-2l6-2zM895 657h2l2 4v13l1 2-2 1-1 3-2-2zM718 1225l4 2 2 2 2 6h6l2 2-3 4-7-1-2-5-2-7h-3z"/><path fill="#201E1F" d="M608 1419h6v2l-7 1-3 2-2 6-1 4v3l-3-4-1-6 7-6z"/><path fill="#1E1C1D" d="m1222 895 4 1-2 1-2 4-8 4-2-6 6-3z"/><path fill="#0F0E0F" d="m532 614 2 1-2 3 1 2-5 4v3l-3 1h-2l-3-1h2v-5z"/><path fill="#211F20" d="M598 796v3l-9 10-13 17-3 2 2-4 8-11 9-11z"/><path fill="#191718" d="m454 1244 4 1 2-1 1 6-6 5-5-9z"/><path fill="#211F20" d="M297 1017v3l-3 9 2 10 3 5 4 4h-3l-7-9-2-6v-6l5-9z"/><path fill="#131112" d="M683 725h9l9 2-4 2v-2l-5 3-3 3-6-5z"/><path fill="#171617" d="m550 602 2 1 1 2-6 4h-3l-4 5-5 2-1-3z"/><path fill="#211F20" d="m511 1238 3 4h1l1 3v3l2 2-2 5v10h-3v-11l-2-11zM1072 973l1 3 5-1 1 1h8l1 4-3 1h-8l-4-2z"/><path fill="#1B191A" d="m426 896 1 2 5 1h3l6 4-3 6-1-4-1 5h-1l-2-8-5-2-7-2v-1z"/><path fill="#090809" d="M1235 889h5l-1 4-10 1-4 2-7 1 4-4z"/><path fill="#1E1C1D" d="M408 803h11l3 2-7 1-4 2-5 1-3-2 1-3z"/><path fill="#141213" d="m1144 754 4 1-1 3-5 2h-6l-6-3 1-2h12z"/><path fill="#201E1F" d="m605 1168 3 2 1 7 4 4v3l-6-1-9-2 3-2 4 1 1-1z"/><path fill="#211F20" d="m1090 1095 5 1-1 13-3-1-3-5 1-7z"/><path fill="#1F1D1E" d="m681 1401 7 1 5 3 1-2h2l1 3h5l2 4-16-4-9-3z"/><path fill="#211F20" d="M524 1491h2l1 8 3 9 4 6 3 2v2l-4-2-5-6-4-11zM684 886l5 1-1 3-2-1-1 5h-6l-4-3 5-1 1-3zM614 1408l6 1 2 2-1 4-4 1-1-1-2 3-3-1 2-2z"/><path fill="#1F1D1E" d="m597 1244 6 3v3l-4-1v4h3l-1 3-4 1-2-5v-5z"/><path fill="#211F20" d="M1072 1496h2v11l4 8 5 6-5-2-4-5-3-7v-7z"/><path fill="#1E1C1D" d="m1256 893 3 1 2 6 1 9h-2l-1 2-3-10 1-4z"/><path fill="#070607" d="M598 676h3l2 6v5l1 2-5-2-2-3v-6z"/><path fill="#211F20" d="m1137 1389 6 2-1 5-2 3-1-4-4 1-6-2 3-3z"/><path fill="#0C0B0C" d="M1170 829h2v2l-3 3h-2l1 4-3 1-3 7h-2l-2 5-1-3 6-11z"/><path fill="#0D0B0C" d="m1203 810 4 1-10 5h-2l1 4-6 2-4-1v-2z"/><path fill="#211F20" d="M621 771v3l-4 5h-2l-2 4-11 11-1 2h-2l2-4 7-7 7-8z"/><path fill="#1F1D1E" d="m680 762 4 2 2 7v6l-6-6z"/><path fill="#211F20" d="m870 575 5 4-5 3h-6l-2-1v-4l5-1 3 1z"/><path fill="#858383" d="M880 506h13v1l-10 1v16h-2l-1-11-2-6z"/><path fill="#1D1B1C" d="m495 656 2 4 5 1-1 3-5 1-3 1-2-4 2-5z"/><path fill="#211F20" d="m400 1245 1 4h4l1 5-5 2-4-3 1-5h2zM638 773l1 3-6 4h-2v2l-5 3-2-1 2-3h2l1-3h2v-2zM980 650l4 2 20 7-4 1-10-2-8-5zM877 547h14l2 2-9 3h-4l-1-4zM909 540l9 1-3 4 1 3h-6l-2-1v-2l2-2z"/><path fill="#888787" d="m736 836 1 3v4l-7 5-2 4-1-4 3-6 5-5z"/><path fill="#1F1D1E" d="m1026 646 10 4 3 3-7-1h-1l-1 2-2-1-1 2-3-2 2-5z"/><path fill="#211F20" d="m875 1358 4 3 2 10-3-1-2-5-1-2-2 5h-3l2-6h2z"/><path fill="#1F1D1E" d="m1108 589 5 2 2 1v2l4 1v2l5 2 7 6h-3l-14-10v-2h-3l-1 2-2-2z"/><path fill="#211F20" d="m844 1390 6 1 3 2v3l-9-1-5 1 1-4zM724 1218h7l-2 4-4 2-7-2-2 1 2-4 6 1z"/><path fill="#1F1D1E" d="M816 849h2v2l2-1 11 1-4 2-8 1-2-1-2 4-1-6z"/><path fill="#211F20" d="m997 1238 2 2-1 4-2 1-2 5-5 9-2 1 1-4 5-10 3-7zM1088 1489h4l1 6-2 3-4-1v-5l-3-1z"/><path fill="#1F1D1E" d="m412 1290 4 1 3 3v4h-2l-1 2-4-5z"/><path fill="#171516" d="m479 1196 3 1-1 2 6 2-2 3-10-3-5-1v-1z"/><path fill="#211F20" d="m1084 1096 2 1-3 9-3 13-2-2 2-13h2l1-7zM1116 676l4 2 5 4v2l4 2 5 4v2l-4-2-8-7-5-4-2-2z"/><path fill="#1D1B1C" d="M870 1419h3v2l-4 2v1l-11 1-3-3 5-1z"/><path fill="#211F20" d="m360 1171 1 2h2l2 7v4h-2l-5-8z"/><path fill="#1B191A" d="m1000 1169 5 1 1 4-2 1h-15v-1l8-1z"/><path fill="#211F20" d="M1168 849v3l-3 5h-2v2l-2-1 1-2h-6l-1-2 2-2v2l8-3zM669 668l2 2-6 5h-6l-5 1 4-3z"/><path fill="#090809" d="M1111 593h3v2l4 2 4 3-1 3-7-4-3-3z"/><path fill="#211F20" d="m692 980 5 4 1 3-3 2-3-1-1-2-5-1 2-2 3-2z"/><path fill="#1F1D1E" d="M1039 698h5l6 5-1 4-3 1v-2h-2l1-3-7-3z"/><path fill="#211F20" d="m824 1420 11 2 6 1-1 2h-8l-9-3z"/><path fill="#111011" d="m599 1249 5 1 1 1v7h-3l-1-4-3-1z"/><path fill="#201E1F" d="m1176 1247 5 2-1 5h-6l-1-5z"/><path fill="#211F20" d="m393 1239 3 4 1 3-3-1-5 4-2-4v-4l4 1z"/><path fill="#615F60" d="m1192 1074 1 2 4 2-1 5-6-2v-5h2z"/><path fill="#1F1D1E" d="m375 1043 5 2-1 6-1-2-5 1-2-1 2-5z"/><path fill="#1C1A1B" d="m898 728 3 1 1 11-4-1-1-6z"/><path fill="#211F20" d="m960 709 6 2 15 8 2 3-5-2-18-10z"/><path fill="#1F1D1E" d="m500 973 2 1-1 3 3 1-4 3-3-1-1 2-2-1 1-4 5-2zM353 968l1 3 3 1 4 2v2l-8 1-2-1v-4h2z"/><path fill="#211F20" d="m719 845 3 1 1 9-3 4-2-6z"/><path fill="#1E1C1D" d="m495 731 10 2 7 2-3 1-1 2-8-3-1 2-3-2 1-3z"/><path fill="#1A1819" d="m1112 710 6 5 4 6-2 1-2-2-3-1v-2l-4-2z"/><path fill="#211F20" d="m882 575 3 1 1 3-3 3-4-1v-3l-4-1zM984 1361l2 3 1 13 2 2-4 1-1-1z"/><path fill="#201E1F" d="M591 1303h2v6l1 2-5 1-3-1 2-5z"/><path fill="#211F20" d="m1065 725 4 1 6 4 2-1 2 1v4l-9-3v-2l-3-1v-2zM838 1170l9 1-2 2 4 2h-9l-4-1-1-3z"/><path fill="#1D1B1C" d="m347 1097 8 4v3l-9-1-1-4h2z"/><path fill="#211F20" d="M893 870h2l-2 9-1-2-7-2 5-4z"/><path fill="#201E1F" d="m516 737 10 3 3 2-4 3h-5l1-4-5-3z"/><path fill="#211F20" d="m1142 703 10 4 5 5-1 2-3-1 1-2-10-4-3-1zM935 1209l1 4 4-1-3 8h-3l-1 3-1-3 2-3z"/><path fill="#1F1D1E" d="m1162 879 3 2 6-1h2v4l-7 1-4-3z"/><path fill="#1D1B1C" d="M1171 828h4l1 4-6 4-2 2-1-4h2l1-3h2z"/><path fill="#211F20" d="M722 822h1v18h-1v-9h-2l-1 2-1-4 1-3h3z"/><path fill="#1C1A1B" d="m1131 730 8 8-1 2-5-1-2-4-1-3z"/><path fill="#171617" d="m576 586 5 2v2l-8 1-3 2-2 1-1-3z"/><path fill="#201E1F" d="m383 1482 2 1 4 11 4 7v2h-2l-7-14z"/><path fill="#1D1B1C" d="M851 1429h1v9l-1 1 5 1v1h-8l-4-2 4-1z"/><path fill="#211F20" d="m870 1284 4 5 1 3-3 1v6h-1l-2-13z"/><path fill="#030203" d="M1034 605h2l1 3 2 2-3 1-1 3-3-1 1-7z"/><path fill="#1C1A1B" d="m704 1495 6 2 5 2-4 3-3-1-3-3-3 1z"/><path fill="#211F20" d="M871 991h7l-4 3-9 3-4 1 4-4z"/><path fill="#FEFDFC" d="m1082 972 3 2h3l2-2-1 5h-10l-1-2z"/><path fill="#111011" d="M1261 898h2l1 4v13h-1l-1-8-2-6z"/><path fill="#1E1C1D" d="m535 848 2 4-5 8-1 2-1-5z"/><path fill="#211F20" d="m943 653 2 1-1 1v7l1 3-5-1v-6z"/><path fill="#1F1D1E" d="m527 620 3 1v2l-2 1v3l-3 1h-2l-3-1h2v-3h3z"/><path fill="#201E1F" d="m817 1443 8 1 8 2v1h-10l-3-1-4-1z"/><path fill="#434142" d="m1019 1409 2 3-1 2v4h-3l-2-7z"/><path fill="#211F20" d="M652 1355h1v9l-2 6h-2l1-8zM786 1161l4 1h-3l4 8 2 2-6-1-2-5z"/><path fill="#201E1F" d="m713 978 6 4 1 3-6-2-6 2 2-3h2z"/><path fill="#211F20" d="M951 696h4l3 3v2l-6 1-3-4z"/><path fill="#0F0E0F" d="m527 1452 4 2v6l-1-2-6-2 1-3z"/><path fill="#201E1F" d="m730 1432 7 1 10 2v1l-7 1h-6l-1-3h-3z"/><path fill="#211F20" d="m756 1174 1 2h2v2h-13l-1-2zM739 1165l9 2 2 4-4 1-1-4-8-1zM1106 846h3l1 1 1 3-3 3h-3l-3-6 4 1zM1104 704l4 2 3 3-6 2v-2l-6 1 1-2h3zM1200 1267h2l-2 5-8 5-1-2h2v-2l5-4h2zM1045 972v3l-7 4h-2v2l-4-1 10-7z"/><path fill="#201E1F" d="M1052 713h2v2h2v2l5 2 5 5h-3l-8-6v-2h-2z"/><path fill="#211F20" d="M914 1469h7l-1 2h-4l-2 6-2-2 1-5z"/><path fill="#1E1D1E" d="m747 1436 9 1 3 2h-2l-2 4v-4h-7l-2-2z"/><path fill="#1A191A" d="m681 1401 7 1 3 2v2l-10-2-2-2z"/><path fill="#1D1C1D" d="m1119 865 2 2 1 11-4-4-1-4h2z"/><path fill="#1F1E1F" d="m423 803 7 1 2 1 1 4-2 3-3-4v-3h-5z"/><path fill="#211F20" d="m943 691 7 1v2h-2l-2 4-4-2zM837 1443l6 2v-2h2v2l3 1-10 2-2-2-3-1zM607 1398l5 1 1 5-1 2h-9v-1l7-2zM515 1266l2 4 1 9-5-5z"/><path fill="#151314" d="m1244 1244 6 2-4 4h-2l-3-1z"/><path fill="#211F20" d="M664 1170h11l-1 2-7 2-3-3zM315 1000l5 1-1 4-4 1-2-1v-3h2z"/><path fill="#171516" d="M1218 802h2v2h-2v2h-2v2l-7 1v-2z"/><path fill="#161415" d="M540 609h2l-1 4-4 3h-2l-1-3z"/><path fill="#1F1D1E" d="M1205 1237h2v2h2l1 7-5-2 2-2h-3z"/><path fill="#211F20" d="M1129 973h3l-2 6-1 1h-5z"/><path fill="#1F1D1E" d="m401 894 4 2-8 1-4 1v2l-4 1 2-4z"/><path fill="#211F20" d="m925 1421 5 1 1 3-6 2-1-3zM736 1222l1 4-1 9-2 1 1-13zM564 1217l4 2 5 2h5l1 2-5 1-7-3zM657 1195l1 2-6 8-4 2 6-9zM777 1161l5 1-1 3-5 2-1-5zM647 556l4 1-11 5v-3z"/></svg>